<?xml version="1.0" standalone="no"?>
<!DOCTYPE svg PUBLIC "-//W3C//DTD SVG 20010904//EN"
 "http://www.w3.org/TR/2001/REC-SVG-20010904/DTD/svg10.dtd">
<svg version="1.0" xmlns="http://www.w3.org/2000/svg"
 width="500.000000pt" height="500.000000pt" viewBox="0 0 500.000000 500.000000"
 preserveAspectRatio="xMidYMid meet">
<metadata>
Created by potrace 1.14, written by Peter Selinger 2001-2017
</metadata>
<g transform="translate(0.000000,500.000000) scale(0.100000,-0.100000)"
fill="#000000" stroke="none">
<path d="M1812 4751 c-5 -3 -8 -24 -7 -46 4 -68 15 -218 20 -270 2 -27 7 -79
10 -114 3 -35 8 -68 11 -72 3 -5 0 -9 -7 -9 -8 0 -8 -4 -1 -12 6 -7 10 -16 10
-21 0 -7 11 -119 18 -172 9 -74 14 -112 19 -145 2 -19 8 -53 11 -75 3 -22 8
-54 11 -70 5 -34 7 -34 -153 -35 -82 0 -115 -14 -99 -41 4 -6 10 -30 12 -53 7
-64 10 -80 17 -97 4 -9 6 -20 5 -25 -1 -5 0 -12 1 -16 8 -26 34 -143 32 -149
-1 -4 3 -22 9 -40 6 -19 13 -50 15 -69 3 -19 10 -47 15 -62 6 -15 8 -32 4 -37
-3 -6 -1 -11 5 -11 7 0 10 -6 7 -14 -3 -8 -3 -17 1 -21 3 -3 7 -16 9 -28 1
-12 14 -69 28 -127 14 -58 28 -116 31 -130 3 -14 8 -34 11 -45 9 -26 13 -45
18 -72 2 -12 8 -37 14 -56 7 -19 14 -45 17 -58 9 -40 12 -54 14 -54 8 0 8 -65
0 -70 -5 -3 -10 -1 -10 5 0 7 -6 8 -18 1 -11 -6 -24 -6 -32 -1 -9 6 -17 5 -22
-3 -6 -9 -8 -9 -8 0 0 9 -7 10 -24 3 -13 -5 -26 -7 -29 -4 -2 2 -9 -1 -15 -9
-8 -10 -6 -29 8 -76 11 -34 22 -72 25 -84 4 -19 10 -45 32 -132 2 -11 5 -26 5
-32 1 -7 5 -13 10 -13 4 0 7 -3 7 -7 -1 -5 0 -10 1 -13 1 -3 3 -14 5 -25 2
-11 13 -51 25 -90 11 -38 23 -77 25 -85 8 -26 75 -224 82 -240 3 -8 7 -17 7
-20 1 -3 5 -11 9 -17 5 -7 6 -13 2 -13 -3 0 1 -13 10 -30 8 -16 16 -41 17 -55
1 -14 5 -25 9 -25 6 0 16 -25 24 -60 2 -8 8 -23 14 -35 19 -39 64 -164 62
-171 -2 -4 2 -10 9 -14 6 -4 12 -13 14 -21 1 -8 14 -39 28 -69 14 -30 36 -77
49 -105 12 -27 22 -53 21 -58 -1 -4 2 -7 7 -7 7 0 21 -33 20 -48 0 -1 14 -27
31 -58 16 -30 30 -61 30 -69 0 -7 3 -15 8 -17 4 -1 18 -28 32 -58 14 -30 31
-61 38 -68 7 -8 10 -17 7 -21 -2 -5 4 -17 15 -28 10 -12 16 -24 13 -27 -4 -3
-2 -6 3 -6 5 0 18 -22 29 -50 11 -27 23 -50 28 -50 4 0 6 -4 3 -9 -5 -7 14
-21 28 -21 1 0 1 12 0 27 -1 16 4 34 10 42 8 11 8 13 -1 8 -9 -6 -11 1 -8 25
3 18 7 62 10 98 11 140 16 197 21 235 3 22 6 55 6 73 1 17 4 32 7 32 3 0 6 19
7 43 0 23 4 62 7 87 4 25 9 65 12 90 3 25 8 57 10 73 3 15 7 39 10 55 19 115
36 212 41 232 3 14 7 39 9 55 2 17 4 30 5 30 2 0 10 38 14 70 2 17 8 41 14 55
5 14 9 27 9 30 -2 22 26 76 41 78 9 1 28 3 42 5 31 3 53 22 56 51 1 11 3 22 4
24 2 1 4 11 5 22 1 11 3 21 5 23 1 1 3 9 5 17 1 8 15 58 29 110 15 52 28 100
29 105 2 6 6 16 10 23 5 6 5 12 1 12 -3 0 -1 7 6 15 7 9 10 18 7 22 -3 3 0 18
9 34 8 16 14 31 14 34 1 9 12 40 21 58 5 10 7 22 4 27 -4 6 -2 10 3 10 6 0 16
20 23 45 7 25 16 45 20 45 7 0 23 50 21 63 -1 4 2 7 7 7 5 0 13 9 16 20 4 11
10 18 15 15 5 -3 10 -1 12 4 1 6 22 12 45 15 65 7 125 28 130 45 3 9 17 41 31
71 14 30 26 57 27 60 0 3 7 16 15 30 8 14 15 28 16 33 1 4 3 9 4 12 1 3 3 9 4
15 0 5 8 17 16 27 9 10 16 21 18 26 1 4 9 23 17 43 8 20 15 40 15 44 0 5 3 10
8 12 4 2 22 31 39 66 48 90 57 106 68 114 6 4 6 8 2 8 -4 0 4 17 18 37 14 21
25 43 25 49 0 7 7 14 15 18 8 3 14 9 13 14 -2 4 15 35 36 69 21 34 38 64 37
68 -2 4 1 11 6 14 11 7 93 127 93 136 0 3 9 16 20 28 19 20 19 23 5 33 -9 7
-17 16 -18 21 -1 4 -15 19 -32 33 -40 33 -80 68 -123 108 -20 17 -40 32 -45
32 -4 0 -5 5 -2 10 3 6 2 10 -3 10 -11 0 -101 83 -269 248 -64 61 -120 112
-126 112 -6 0 -8 2 -5 5 3 3 -40 52 -96 109 -56 57 -123 126 -149 155 -27 28
-52 49 -57 46 -5 -3 -11 -1 -14 4 -3 4 -16 9 -28 9 -13 1 -41 4 -63 7 -64 9
-96 13 -160 20 -33 3 -61 10 -63 15 -2 6 -10 6 -21 0 -10 -5 -20 -7 -22 -5 -3
2 -27 7 -54 10 -28 4 -61 9 -75 11 -14 3 -38 6 -55 8 -16 2 -55 7 -85 11 -30
4 -71 9 -90 11 -19 2 -48 6 -65 8 -16 3 -55 7 -85 11 -30 3 -66 8 -80 11 -14
3 -41 7 -60 9 -19 1 -50 5 -68 7 -17 2 -36 2 -40 -1z"/>
</g>
</svg>
